<svg xmlns="http://www.w3.org/2000/svg" xmlns:xlink="http://www.w3.org/1999/xlink" width="113" zoomAndPan="magnify" viewBox="0 0 84.75 84.749999" height="113" preserveAspectRatio="xMidYMid meet" version="1.2"><defs><clipPath id="2ce6785865"><path d="M 31.417969 70 L 45 70 L 45 83.507812 L 31.417969 83.507812 Z M 31.417969 70 "/></clipPath><clipPath id="0f5430237a"><path d="M 58.761719 70 L 72 70 L 72 83.507812 L 58.761719 83.507812 Z M 58.761719 70 "/></clipPath><clipPath id="339333a930"><path d="M 2.253906 17.703125 L 82.4375 17.703125 L 82.4375 68.742188 L 2.253906 68.742188 Z M 2.253906 17.703125 "/></clipPath></defs><g id="71770311ca"><g clip-rule="nonzero" clip-path="url(#2ce6785865)"><path style=" stroke:none;fill-rule:nonzero;fill:#ffffff;fill-opacity:1;" d="M 38.003906 72.84375 C 40.269531 72.785156 42.15625 74.582031 42.214844 76.84375 C 42.214844 76.886719 42.214844 76.929688 42.214844 76.964844 C 42.242188 79.238281 40.417969 81.097656 38.15625 81.117188 C 35.882812 81.144531 34.023438 79.332031 33.996094 77.058594 C 33.996094 77.03125 33.996094 76.996094 33.996094 76.964844 C 33.988281 74.730469 35.769531 72.894531 38.003906 72.84375 Z M 37.921875 70.4375 C 34.382812 70.535156 31.574219 73.433594 31.574219 76.964844 C 31.539062 80.578125 34.4375 83.53125 38.046875 83.558594 C 41.652344 83.59375 44.605469 80.699219 44.640625 77.085938 C 44.640625 77.050781 44.640625 77.007812 44.640625 76.964844 C 44.640625 73.355469 41.714844 70.4375 38.105469 70.429688 C 38.046875 70.429688 37.976562 70.429688 37.921875 70.4375 "/></g><g clip-rule="nonzero" clip-path="url(#0f5430237a)"><path style=" stroke:none;fill-rule:nonzero;fill:#ffffff;fill-opacity:1;" d="M 65.320312 72.84375 C 67.585938 72.785156 69.472656 74.582031 69.527344 76.84375 C 69.527344 76.886719 69.527344 76.929688 69.527344 76.964844 C 69.558594 79.238281 67.734375 81.097656 65.460938 81.117188 C 63.199219 81.144531 61.332031 79.332031 61.3125 77.058594 C 61.3125 77.03125 61.3125 76.996094 61.3125 76.964844 C 61.296875 74.730469 63.085938 72.894531 65.320312 72.84375 Z M 65.269531 70.394531 C 61.703125 70.480469 58.863281 73.40625 58.890625 76.964844 C 58.863281 80.578125 61.765625 83.523438 65.371094 83.546875 C 68.980469 83.574219 71.929688 80.667969 71.949219 77.058594 C 71.957031 77.03125 71.957031 76.996094 71.949219 76.964844 C 71.976562 73.355469 69.066406 70.414062 65.460938 70.394531 C 65.398438 70.394531 65.335938 70.394531 65.269531 70.394531 "/></g><g clip-rule="nonzero" clip-path="url(#339333a930)"><path style=" stroke:none;fill-rule:nonzero;fill:#ffffff;fill-opacity:1;" d="M 22.929688 31.34375 L 79.796875 31.34375 L 73.261719 57.476562 L 29.355469 57.476562 Z M 3.457031 17.695312 C 2.789062 17.703125 2.246094 18.25 2.253906 18.917969 C 2.261719 19.582031 2.792969 20.113281 3.457031 20.121094 L 12.597656 20.121094 C 15.574219 20.121094 18.167969 22.152344 18.878906 25.042969 L 28.09375 62.496094 C 28.984375 66.105469 32.222656 68.648438 35.941406 68.648438 L 75.601562 68.648438 C 76.273438 68.636719 76.804688 68.085938 76.800781 67.417969 C 76.785156 66.761719 76.257812 66.234375 75.601562 66.222656 L 35.941406 66.222656 C 33.335938 66.222656 31.070312 64.449219 30.449219 61.921875 L 29.953125 59.90625 L 75.152344 59.90625 L 82.402344 30.929688 C 82.617188 30.0625 82.089844 29.1875 81.226562 28.972656 C 81.101562 28.9375 80.964844 28.921875 80.835938 28.921875 L 22.332031 28.921875 L 21.238281 24.457031 C 20.253906 20.492188 16.695312 17.695312 12.597656 17.695312 L 3.457031 17.695312 "/></g></g></svg>