<svg xmlns="http://www.w3.org/2000/svg" xmlns:xlink="http://www.w3.org/1999/xlink" width="113" zoomAndPan="magnify" viewBox="0 0 84.75 84.749999" height="113" preserveAspectRatio="xMidYMid meet" version="1.2"><defs><clipPath id="a844969190"><path d="M 1.566406 12 L 83.339844 12 L 83.339844 83.691406 L 1.566406 83.691406 Z M 1.566406 12 "/></clipPath><clipPath id="1208c85e95"><path d="M 4.804688 23.652344 C -1.816406 34.558594 2.847656 45.175781 8.710938 50.808594 L 42.980469 83.691406 L 76.53125 50.925781 C 81.984375 44.867188 84.074219 38.4375 82.910156 31.277344 C 81.308594 21.371094 73.148438 13.6875 63.066406 12.59375 C 56.882812 11.925781 50.910156 13.675781 46.246094 17.550781 C 44.992188 18.59375 43.871094 19.757812 42.894531 21.023438 C 41.734375 19.582031 40.375 18.261719 38.835938 17.09375 C 33.476562 13.019531 26.652344 11.402344 20.097656 12.660156 C 13.886719 13.859375 8.316406 17.863281 4.804688 23.652344 Z M 4.804688 23.652344 "/></clipPath></defs><g id="d2b2a4f6fe"><g clip-rule="nonzero" clip-path="url(#a844969190)"><g clip-rule="nonzero" clip-path="url(#1208c85e95)"><path style=" stroke:none;fill-rule:nonzero;fill:#ffffff;fill-opacity:1;" d="M 1.566406 12.242188 L 83.339844 12.242188 L 83.339844 83.691406 L 1.566406 83.691406 Z M 1.566406 12.242188 "/></g></g></g></svg>