<svg xmlns="http://www.w3.org/2000/svg" xmlns:xlink="http://www.w3.org/1999/xlink" width="113" zoomAndPan="magnify" viewBox="0 0 84.75 84.749999" height="113" preserveAspectRatio="xMidYMid meet" version="1.2"><defs><clipPath id="25e7aba3c5"><path d="M 1.855469 11.363281 L 82.34375 11.363281 L 82.34375 82.910156 L 1.855469 82.910156 Z M 1.855469 11.363281 "/></clipPath></defs><g id="5baf22fe82"><g clip-rule="nonzero" clip-path="url(#25e7aba3c5)"><path style=" stroke:none;fill-rule:nonzero;fill:#ffffff;fill-opacity:1;" d="M 42.101562 82.890625 L 41.246094 82.308594 C 41.152344 82.242188 31.347656 75.527344 21.6875 66.246094 C 15.992188 60.753906 11.433594 55.460938 8.152344 50.488281 C 3.980469 44.125 1.855469 38.234375 1.855469 33 C 1.855469 21.085938 11.53125 11.382812 23.410156 11.382812 C 27.824219 11.382812 32.089844 12.738281 35.726562 15.324219 C 38.367188 17.195312 40.523438 19.585938 42.101562 22.328125 C 43.679688 19.570312 45.835938 17.179688 48.476562 15.324219 C 52.113281 12.738281 56.378906 11.382812 60.789062 11.382812 C 72.667969 11.382812 82.34375 21.085938 82.34375 33 L 82.34375 33.019531 C 82.296875 38.214844 80.15625 44.0625 75.96875 50.40625 C 72.6875 55.378906 68.144531 60.675781 62.449219 66.179688 C 52.804688 75.496094 43.050781 82.242188 42.953125 82.308594 Z M 23.410156 14.402344 C 13.191406 14.402344 4.867188 22.75 4.867188 33 C 4.867188 37.636719 6.816406 42.945312 10.664062 48.792969 C 13.800781 53.570312 18.210938 58.703125 23.75 64.03125 C 31.589844 71.570312 39.542969 77.402344 42.101562 79.207031 C 44.660156 77.382812 52.5625 71.523438 60.386719 63.96875 C 65.910156 58.625 70.304688 53.503906 73.457031 48.726562 C 77.304688 42.882812 79.285156 37.601562 79.316406 33 C 79.316406 22.75 70.996094 14.417969 60.773438 14.417969 C 53.191406 14.417969 46.253906 19.230469 43.484375 26.398438 L 42.085938 30.046875 L 40.699219 26.398438 C 37.929688 19.230469 30.992188 14.402344 23.410156 14.402344 Z M 23.410156 14.402344 "/></g></g></svg>