<svg xmlns="http://www.w3.org/2000/svg" xmlns:xlink="http://www.w3.org/1999/xlink" width="113" zoomAndPan="magnify" viewBox="0 0 84.75 84.749999" height="113" preserveAspectRatio="xMidYMid meet" version="1.2"><defs><clipPath id="46f0d68651"><path d="M 1.5625 12 L 83 12 L 83 83.40625 L 1.5625 83.40625 Z M 1.5625 12 "/></clipPath><clipPath id="a78259f699"><path d="M 4.789062 23.570312 C -1.808594 34.441406 2.839844 45.019531 8.679688 50.636719 L 42.835938 83.40625 L 76.269531 50.753906 C 81.703125 44.710938 83.785156 38.304688 82.628906 31.171875 C 81.03125 21.300781 72.898438 13.640625 62.851562 12.550781 C 56.6875 11.886719 50.734375 13.628906 46.089844 17.488281 C 44.839844 18.527344 43.722656 19.691406 42.746094 20.953125 C 41.59375 19.515625 40.238281 18.199219 38.703125 17.035156 C 33.359375 12.976562 26.558594 11.363281 20.027344 12.617188 C 13.839844 13.8125 8.289062 17.804688 4.789062 23.570312 Z M 4.789062 23.570312 "/></clipPath><clipPath id="22d2a7fdde"><path d="M 1.5625 15 L 82.792969 15 L 82.792969 83.679688 L 1.5625 83.679688 Z M 1.5625 15 "/></clipPath></defs><g id="8f3a127887"><g clip-rule="nonzero" clip-path="url(#46f0d68651)"><g clip-rule="nonzero" clip-path="url(#a78259f699)"><path style=" stroke:none;fill-rule:nonzero;fill:#ffffff;fill-opacity:1;" d="M 1.5625 12.199219 L 83.058594 12.199219 L 83.058594 83.40625 L 1.5625 83.40625 Z M 1.5625 12.199219 "/></g></g><g clip-rule="nonzero" clip-path="url(#22d2a7fdde)"><path style=" stroke:none;fill-rule:nonzero;fill:#ffffff;fill-opacity:1;" d="M 23.054688 18.644531 C 18.335938 18.644531 13.621094 20.441406 10.027344 24.03125 C 3.171875 30.890625 2.832031 41.972656 9.257812 49.265625 C 19.089844 60.425781 30.160156 70.636719 42.179688 79.625 C 54.195312 70.636719 65.265625 60.425781 75.097656 49.265625 C 81.523438 41.972656 81.183594 30.890625 74.328125 24.03125 C 70.847656 20.550781 66.222656 18.636719 61.300781 18.636719 C 56.378906 18.636719 51.753906 20.550781 48.277344 24.03125 L 42.179688 30.128906 L 36.082031 24.03125 C 32.488281 20.441406 27.773438 18.644531 23.054688 18.644531 Z M 42.179688 83.261719 L 41.308594 82.617188 C 28.792969 73.351562 17.269531 62.78125 7.066406 51.195312 C 3.457031 47.101562 1.5625 41.847656 1.726562 36.402344 C 1.890625 30.949219 4.105469 25.824219 7.964844 21.96875 C 16.285156 13.648438 29.824219 13.648438 38.144531 21.96875 L 42.179688 26 L 46.210938 21.96875 C 54.53125 13.648438 68.070312 13.648438 76.390625 21.96875 C 80.25 25.824219 82.464844 30.949219 82.628906 36.402344 C 82.792969 41.847656 80.898438 47.101562 77.289062 51.195312 C 67.085938 62.78125 55.5625 73.351562 43.046875 82.617188 L 42.179688 83.261719 "/></g></g></svg>